sfk_cyclingleg_states
version=1
nRows=6
nColumns=53
inDegrees=yes

# SIMM Motion File Header:
name sfk_cyclingleg_states
datacolumns 53
datarows 6
otherdata 1
range 0.84985215 0.85083332
endheader
time	/jointset/bb/crank_angle/value	/jointset/bb/crank_angle/speed	/jointset/spindle/pedal_angle_r/value	/jointset/spindle/pedal_angle_r/speed	/jointset/ground_pelvis/pelvis_tilt/value	/jointset/ground_pelvis/pelvis_tilt/speed	/jointset/ground_pelvis/pelvis_list/value	/jointset/ground_pelvis/pelvis_list/speed	/jointset/ground_pelvis/pelvis_rotation/value	/jointset/ground_pelvis/pelvis_rotation/speed	/jointset/ground_pelvis/pelvis_tx/value	/jointset/ground_pelvis/pelvis_tx/speed	/jointset/ground_pelvis/pelvis_ty/value	/jointset/ground_pelvis/pelvis_ty/speed	/jointset/ground_pelvis/pelvis_tz/value	/jointset/ground_pelvis/pelvis_tz/speed	/jointset/hip_r/hip_angle_r/value	/jointset/hip_r/hip_angle_r/speed	/jointset/hip_r/hip_adduction_r/value	/jointset/hip_r/hip_adduction_r/speed	/jointset/hip_r/hip_rotation_r/value	/jointset/hip_r/hip_rotation_r/speed	/jointset/knee_r/knee_angle_r/value	/jointset/knee_r/knee_angle_r/speed	/jointset/knee_r/tib_tx_r/value	/jointset/knee_r/tib_tx_r/speed	/jointset/knee_r/tib_ty_r/value	/jointset/knee_r/tib_ty_r/speed	/jointset/tib_pat_r/pat_angle_r/value	/jointset/tib_pat_r/pat_angle_r/speed	/jointset/tib_pat_r/pat_tx_r/value	/jointset/tib_pat_r/pat_tx_r/speed	/jointset/tib_pat_r/pat_ty_r/value	/jointset/tib_pat_r/pat_ty_r/speed	/jointset/ankle_r/ankle_angle_r/value	/jointset/ankle_r/ankle_angle_r/speed	/jointset/subtalar_r/subtalar_angle_r/value	/jointset/subtalar_r/subtalar_angle_r/speed	/jointset/mtp_r/mtp_angle_r/value	/jointset/mtp_r/mtp_angle_r/speed	/forceset/bifemlh_r/activation	/forceset/bifemlh_r/fiber_length	/forceset/bifemsh_r/activation	/forceset/bifemsh_r/fiber_length	/forceset/glut_max2_r/activation	/forceset/glut_max2_r/fiber_length	/forceset/vas_int_r/activation	/forceset/vas_int_r/fiber_length	/forceset/med_gas_r/activation	/forceset/med_gas_r/fiber_length	/forceset/tib_ant_r/activation	/forceset/tib_ant_r/fiber_length
      0.84985215	   -418.18172667	   -480.13863232	    419.19321966	    575.16909499	      0.00000000	     -0.00000000	     -0.00000000	      0.00000000	     -0.00000000	     -0.00000000	      0.00000000	      0.00000000	      0.00000000	     -0.00000000	      0.00000000	      0.00000000	     73.74127480	   -132.82181232	      4.25748651	      1.92325676	     -2.00567084	     21.39324462	    -95.48634321	    263.33451005	      0.00297326	      0.04630155	     -0.48783883	      0.09121422	     17.58766856	     -1.08179631	      0.03060578	      0.10614946	     -0.02293396	      0.01277242	     23.30467343	    -36.95425999	     -0.00000000	      0.00000000	     -0.00000000	      0.00000000	     -0.08397635	      0.13614155	     -0.08397635	      0.14968001	     -0.08397635	      0.15208804	     -0.08397635	      0.15124763	     -0.08397635	      0.13411794	     -0.08397635	      0.11538181
      0.84997374	   -418.24010965	   -480.13863232	    419.26315593	    575.13546465	      0.00000000	     -0.00000000	     -0.00000000	      0.00000000	     -0.00000000	     -0.00000000	      0.00000000	      0.00000000	      0.00000000	     -0.00000000	      0.00000000	      0.00000000	     73.72511398	   -132.98959693	      4.25772031	      1.92224742	     -2.00306937	     21.39546998	    -95.45431722	    263.42559993	      0.00297889	      0.04625350	     -0.48782773	      0.09124832	     17.58753703	     -1.08162013	      0.03061869	      0.10615329	     -0.02293241	      0.01275994	     23.30018259	    -36.91056624	     -0.00000000	      0.00000000	     -0.00000000	      0.00000000	     -0.08399200	      0.13613704	     -0.08399200	      0.14969052	     -0.08399200	      0.15208051	     -0.08399200	      0.15123076	     -0.08399200	      0.13412178	     -0.08399200	      0.11538580
      0.85023973	   -418.36781808	   -480.13863232	    419.41612207	    575.06205891	      0.00000000	     -0.00000000	     -0.00000000	      0.00000000	     -0.00000000	     -0.00000000	      0.00000000	      0.00000000	      0.00000000	     -0.00000000	      0.00000000	      0.00000000	     73.68969234	   -133.35605777	      4.25823130	      1.92002750	     -1.99737790	     21.40031176	    -95.38422421	    263.62431415	      0.00299118	      0.04614814	     -0.48780345	      0.09132265	     17.58724939	     -1.08120788	      0.03064693	      0.10616136	     -0.02292902	      0.01273251	     23.29037776	    -36.81484463	     -0.00000000	      0.00000000	     -0.00000000	      0.00000000	     -0.08402625	      0.13612715	     -0.08402625	      0.14971354	     -0.08402625	      0.15206400	     -0.08402625	      0.15119381	     -0.08402625	      0.13413754	     -0.08402625	      0.11539450
      0.85064383	   -418.56184285	   -480.13863232	    419.64848308	    574.95095019	      0.00000000	     -0.00000000	     -0.00000000	      0.00000000	     -0.00000000	     -0.00000000	      0.00000000	      0.00000000	      0.00000000	     -0.00000000	      0.00000000	      0.00000000	     73.63569069	   -133.91135453	      4.25900650	      1.91662325	     -1.98872853	     21.40760003	    -95.27763243	    263.92480463	      0.00300979	      0.04598738	     -0.48776653	      0.09143491	     17.58681261	     -1.08051069	      0.03068983	      0.10617287	     -0.02292388	      0.01269050	     23.27553027	    -36.66903882	     -0.00000000	      0.00000000	     -0.00000000	      0.00000000	     -0.08407827	      0.13611207	     -0.08407827	      0.14974863	     -0.08407827	      0.15203881	     -0.08407827	      0.15113757	     -0.08407827	      0.13424242	     -0.08407827	      0.11540768
      0.85068669	   -418.58242171	   -480.13863232	    419.67312537	    574.93919501	      0.00000000	     -0.00000000	     -0.00000000	      0.00000000	     -0.00000000	     -0.00000000	      0.00000000	      0.00000000	      0.00000000	     -0.00000000	      0.00000000	      0.00000000	     73.62994995	   -133.97014769	      4.25908864	      1.91625996	     -1.98781098	     21.40836829	    -95.26631987	    263.95657577	      0.00301176	      0.04597028	     -0.48776261	      0.09144677	     17.58676630	     -1.08043171	      0.03069438	      0.10617403	     -0.02292334	      0.01268602	     23.27395896	    -36.65354763	     -0.00000000	      0.00000000	     -0.00000000	      0.00000000	     -0.08408379	      0.13611047	     -0.08408379	      0.14975236	     -0.08408379	      0.15203613	     -0.08408379	      0.15113160	     -0.08408379	      0.13422235	     -0.08408379	      0.11540908
      0.85083332	   -418.65282751	   -480.13863232	    419.75742943	    574.89901995	      0.00000000	     -0.00000000	     -0.00000000	      0.00000000	     -0.00000000	     -0.00000000	      0.00000000	      0.00000000	      0.00000000	     -0.00000000	      0.00000000	      0.00000000	     73.61029032	   -134.17114502	      4.25936954	      1.91501382	     -1.98467154	     21.41098987	    -95.22760627	    264.06512874	      0.00301850	      0.04591171	     -0.48774919	      0.09148728	     17.58660789	     -1.08015420	      0.03070995	      0.10617795	     -0.02292148	      0.01267066	     23.26858810	    -36.60050971	     -0.00000000	      0.00000000	     -0.00000000	      0.00000000	     -0.08410267	      0.13610497	     -0.08410267	      0.14976514	     -0.08410267	      0.15202695	     -0.08410267	      0.15111116	     -0.08410267	      0.13421194	     -0.08410267	      0.11541385
